<svg xmlns="http://www.w3.org/2000/svg" xmlns:xlink="http://www.w3.org/1999/xlink" viewBox="0 0 430 430" width="430" height="430" style="width: 100%; height: 100%; transform: translate3d(0px, 0px, 0px);" preserveAspectRatio="xMidYMid meet"><defs><clipPath id="__lottie_element_59"><rect width="430" height="430" x="0" y="0"/></clipPath><clipPath id="__lottie_element_61"><path d="M0,0 L430,0 L430,430 L0,430z"/></clipPath><filter id="__lottie_element_67" x="-100%" y="-100%" width="300%" height="300%"><feGaussianBlur result="filter_result_0" stdDeviation="52.5 52.5" edgeMode="wrap"/></filter><g id="__lottie_element_68"><g clip-path="url(#__lottie_element_69)" style="display: block;" transform="matrix(1,0,0,1,0,0)" opacity="1"><g style="display: none;" transform="matrix(1,0,0,1,215,215)" opacity="1"><g opacity="1" transform="matrix(1,0,0,1,0,0)"><path stroke-linecap="round" stroke-linejoin="round" fill-opacity="0" class="secondary" stroke="rgb(8,168,138)" stroke-opacity="1" stroke-width="12" d=" M-58.5,-4 C-58.5,-4 -160,-106 -160,-106 M58,-4 C58,-4 159.5,-106 159.5,-106"/></g></g><g style="display: block;" transform="matrix(1,0,0,1,-35,-35)" opacity="1"><g opacity="1" transform="matrix(1,0,0,1,250,250)"><path stroke-linecap="round" stroke-linejoin="round" fill-opacity="0" class="primary" stroke="rgb(18,19,49)" stroke-opacity="1" stroke-width="12.95" d=" M-159.1719970703125,-105.41999816894531 C-159.1719970703125,-105.41999816894531 -159.1719970703125,105.41999816894531 -159.1719970703125,105.41999816894531 C-159.1719970703125,105.41999816894531 159.1719970703125,105.41999816894531 159.1719970703125,105.41999816894531 C159.1719970703125,105.41999816894531 159.1719970703125,-105.3949966430664 159.1719970703125,-105.3949966430664 C159.1719970703125,-105.3949966430664 -159.1719970703125,-105.41999816894531 -159.1719970703125,-105.41999816894531z"/></g></g><g style="display: block;" mask="url(#__lottie_element_78_2)"><g transform="matrix(1,0,0,1,-35,-35)" opacity="1"><g opacity="1" transform="matrix(1,0,0,1,249.86099243164062,218.1739959716797)"><path stroke-linecap="round" stroke-linejoin="round" fill-opacity="0" class="primary" stroke="rgb(18,19,49)" stroke-opacity="1" stroke-width="12.95" d=" M159.21299743652344,117.10900115966797 C159.21299743652344,117.10900115966797 55.138999938964844,25.586000442504883 55.138999938964844,25.586000442504883 C24.993000030517578,-1.1430000066757202 -23.96299934387207,-1.1440000534057617 -54.11199951171875,25.582000732421875 C-54.11199951171875,25.582000732421875 -158.69000244140625,117.49299621582031 -158.69000244140625,117.49299621582031"/></g></g></g><g style="display: block;" transform="matrix(1,0,0,1,-35,-35)" opacity="1"><g opacity="1" transform="matrix(1,0,0,1,249.86099243164062,218.1739959716797)"><path stroke-linecap="round" stroke-linejoin="round" fill-opacity="0" class="primary" stroke="rgb(18,19,49)" stroke-opacity="1" stroke-width="12.95" d=" M-158.69000244140625,-72.73400115966797 C-158.69000244140625,-72.73400115966797 -26.1299991607666,60.03799819946289 -26.1299991607666,60.03799819946289 C-11.704999923706055,74.49099731445312 11.720999717712402,74.49299621582031 26.148000717163086,60.04100036621094 C26.148000717163086,60.04100036621094 159.21299743652344,-73.16699981689453 159.21299743652344,-73.16699981689453"/></g></g></g></g><clipPath id="__lottie_element_69"><path d="M0,0 L430,0 L430,430 L0,430z"/></clipPath><mask id="__lottie_element_68_1" mask-type="alpha"><use a0:href="#__lottie_element_68" xmlns:a0="http://www.w3.org/1999/xlink"/></mask><g id="__lottie_element_78"><g style="display: block;" transform="matrix(1,0,0,1,-35,-35)" opacity="1"><g opacity="1" transform="matrix(1,0,0,1,249.86099243164062,218.1739959716797)"><path fill="rgb(255,0,0)" fill-opacity="1" d=" M-158.69000244140625,-72.73400115966797 C-158.69000244140625,-72.73400115966797 -26.1299991607666,60.03799819946289 -26.1299991607666,60.03799819946289 C-11.704999923706055,74.49099731445312 11.720999717712402,74.49299621582031 26.148000717163086,60.04100036621094 C26.148000717163086,60.04100036621094 159.21299743652344,-73.16699981689453 159.21299743652344,-73.16699981689453"/></g></g></g><filter id="__lottie_element_84" filterUnits="objectBoundingBox" x="0%" y="0%" width="100%" height="100%"><feComponentTransfer in="SourceGraphic"><feFuncA type="table" tableValues="1.0 0.0"/></feComponentTransfer></filter><mask id="__lottie_element_78_2" mask-type="alpha"><g filter="url(#__lottie_element_84)"><rect width="430" height="430" x="0" y="0" fill="#ffffff" opacity="0"/><use a1:href="#__lottie_element_78" xmlns:a1="http://www.w3.org/1999/xlink"/></g></mask></defs><g clip-path="url(#__lottie_element_59)"><g clip-path="url(#__lottie_element_61)" style="display: block;" transform="matrix(1,0,0,1,0,0)" opacity="1"><g style="display: block;" mask="url(#__lottie_element_68_1)"><g filter="url(#__lottie_element_67)" transform="matrix(-0.1674155443906784,-2.3941538333892822,2.3941538333892822,-0.1674155443906784,272.4410095214844,235.4600067138672)" opacity="1"><g class="design" opacity="1" transform="matrix(1,0,0,1,0,0)"><path class="primary" fill="rgb(75,225,236)" fill-opacity="1" d=" M0,-250 C137.97500610351562,-250 250,-137.97500610351562 250,0 C250,137.97500610351562 137.97500610351562,250 0,250 C-137.97500610351562,250 -250,137.97500610351562 -250,0 C-250,-137.97500610351562 -137.97500610351562,-250 0,-250z"/></g><g class="design" opacity="1" transform="matrix(1,0,0,1,113.24199676513672,-118.88400268554688)"><path class="secondary" fill="rgb(203,94,238)" fill-opacity="1" d=" M0,-176.5 C97.47799682617188,-176.5 176.5,-97.47799682617188 176.5,0 C176.5,97.47799682617188 97.47799682617188,176.5 0,176.5 C-43.948001861572266,176.5 -74.39600372314453,142.4429931640625 -105.29000091552734,115.86900329589844 C-142.92100524902344,83.5 -176.5,53.53099822998047 -176.5,0 C-176.5,-97.47799682617188 -97.47799682617188,-176.5 0,-176.5z"/></g></g></g></g></g></svg>